<mxfile host="app.diagrams.net" modified="2023-11-27T12:13:47.686Z" agent="Mozilla/5.0 (Windows NT 10.0; Win64; x64; rv:120.0) Gecko/20100101 Firefox/120.0" etag="XCQoVWbGnag7q836QmYh" version="22.1.3" type="github">
  <diagram name="Page-1" id="g1JAxXRSMHbpgZsgY1w-">
    <mxGraphModel dx="1210" dy="603" grid="1" gridSize="10" guides="1" tooltips="1" connect="1" arrows="1" fold="1" page="1" pageScale="1" pageWidth="850" pageHeight="1100" math="0" shadow="0">
      <root>
        <mxCell id="0" />
        <mxCell id="1" parent="0" />
        <mxCell id="R9UEh_bRnkbGslfB4Rm0-1" value="Command Dispatcher (JSON Request)" style="rounded=0;whiteSpace=wrap;html=1;" vertex="1" parent="1">
          <mxGeometry x="70" y="270" width="220" height="60" as="geometry" />
        </mxCell>
        <mxCell id="R9UEh_bRnkbGslfB4Rm0-2" value="&lt;div&gt;COAP Request Assembler&lt;/div&gt;&lt;div&gt;&lt;br&gt;&lt;/div&gt;&lt;div&gt;&lt;br&gt;&lt;/div&gt;&lt;div&gt;1.Consume JSON&lt;/div&gt;&lt;div&gt;2.Context/Request - Create dependencies.&lt;/div&gt;&lt;div&gt;3.Returns everything that is needed to run the BaseHttpCoapProxy&lt;/div&gt;&lt;div&gt;&lt;br&gt;&lt;/div&gt;" style="rounded=0;whiteSpace=wrap;html=1;" vertex="1" parent="1">
          <mxGeometry x="400" y="70" width="270" height="190" as="geometry" />
        </mxCell>
        <mxCell id="R9UEh_bRnkbGslfB4Rm0-3" value="" style="endArrow=classic;startArrow=classic;html=1;rounded=0;entryX=0;entryY=0.5;entryDx=0;entryDy=0;" edge="1" parent="1" target="R9UEh_bRnkbGslfB4Rm0-2">
          <mxGeometry width="50" height="50" relative="1" as="geometry">
            <mxPoint x="230" y="270" as="sourcePoint" />
            <mxPoint x="280" y="220" as="targetPoint" />
          </mxGeometry>
        </mxCell>
        <mxCell id="R9UEh_bRnkbGslfB4Rm0-4" value="BaseProxy" style="rounded=0;whiteSpace=wrap;html=1;" vertex="1" parent="1">
          <mxGeometry x="490" y="390" width="120" height="60" as="geometry" />
        </mxCell>
        <mxCell id="R9UEh_bRnkbGslfB4Rm0-5" value="" style="endArrow=classic;startArrow=classic;html=1;rounded=0;entryX=0;entryY=0.25;entryDx=0;entryDy=0;" edge="1" parent="1" target="R9UEh_bRnkbGslfB4Rm0-4">
          <mxGeometry width="50" height="50" relative="1" as="geometry">
            <mxPoint x="290" y="330" as="sourcePoint" />
            <mxPoint x="340" y="280" as="targetPoint" />
          </mxGeometry>
        </mxCell>
        <mxCell id="R9UEh_bRnkbGslfB4Rm0-6" value="" style="endArrow=classic;startArrow=classic;html=1;rounded=0;entryX=0.5;entryY=1;entryDx=0;entryDy=0;" edge="1" parent="1" target="R9UEh_bRnkbGslfB4Rm0-2">
          <mxGeometry width="50" height="50" relative="1" as="geometry">
            <mxPoint x="540" y="390" as="sourcePoint" />
            <mxPoint x="590" y="340" as="targetPoint" />
          </mxGeometry>
        </mxCell>
      </root>
    </mxGraphModel>
  </diagram>
</mxfile>
